<svg width="48" height="46" viewBox="0 0 48 46" fill="none" xmlns="http://www.w3.org/2000/svg">
<rect width="48" height="46" rx="12" fill="#00AEEF"/>
<path d="M12.7003 28.1193V26.6193H13.1733C13.4091 26.6193 13.5994 26.5909 13.7443 26.5341C13.8892 26.4744 14.0043 26.3878 14.0895 26.2741C14.1776 26.1577 14.2514 26.0128 14.3111 25.8395L14.4176 25.554L11.2472 19.2727H13.1562L15.2102 23.5682L16.9276 19.2727H18.8111L15.8026 26.2869C15.6577 26.6108 15.4858 26.9119 15.2869 27.1903C15.0909 27.4687 14.8395 27.6932 14.5327 27.8636C14.2259 28.0341 13.8338 28.1193 13.3565 28.1193H12.7003ZM19.8093 19.2727H22.0849L24.4883 25.1364H24.5906L26.994 19.2727H29.2695V28H27.4798V22.3196H27.4073L25.1488 27.9574H23.93L21.6715 22.2983H21.5991V28H19.8093V19.2727ZM36.0696 28L33.2656 24.2798H32.6349V28H30.7898V19.2727H32.6349V22.7585H33.0057L35.9034 19.2727H38.2003L34.7955 23.321L38.358 28H36.0696Z" fill="white"/>
</svg>
